<svg width="324" height="126" viewBox="0 0 324 126" fill="none" xmlns="http://www.w3.org/2000/svg">
<path d="M20.6612 48.8831L19.6778 47.5316L19.6976 47.5376L19.7075 47.5415C68.5304 63.7201 117.07 79.79 163.873 79.79C164.544 79.79 165.284 79.786 165.954 79.7801C213.386 79.2913 259.102 62.0144 305.106 44.6109C305.84 44.3319 306.661 44.7019 306.94 45.4381C307.217 46.1722 306.847 46.9934 306.113 47.2724C260.207 64.6403 214.01 82.1328 165.986 82.6256C165.315 82.6315 164.546 82.6355 163.875 82.6355C116.528 82.6355 67.5311 66.3856 18.815 50.2426L18.8249 50.2465L18.8032 50.2406C18.2115 50.0447 17.8177 49.5005 17.8177 48.8871C17.8177 48.0995 18.4549 47.4643 19.2405 47.4643C20.0261 47.4643 20.6612 48.1015 20.6612 48.8871V48.8831Z" fill="#6D5656"/>
<path d="M16.2564 47.0508C17.1765 42.4086 19.3473 38.5519 22.7686 35.4769L22.8082 35.4432C27.8264 31.2482 31.6455 29.9303 34.2694 31.4856C34.4613 31.5984 34.6236 31.7548 34.7423 31.9428C36.2759 34.345 35.5279 37.2657 32.4964 40.7049L32.5894 40.5881C31.3981 42.2681 27.0982 45.2343 19.6916 49.4868C19.4779 49.6094 19.2384 49.6727 18.9931 49.6747C18.5102 49.6787 18.0551 49.5164 17.6257 49.1899C17.2438 48.901 16.8777 48.4617 16.5275 47.878C16.4978 47.8285 16.4701 47.7751 16.4463 47.7197C14.6951 43.7443 13.2209 40.9205 12.0218 39.2425L11.998 39.2089C10.7474 37.3449 9.40381 35.746 7.9672 34.4083L7.95333 34.3945C6.11305 32.6314 4.7754 32.1861 3.93837 33.0568C3.76226 33.2408 3.59008 33.4743 3.42386 33.7573L3.51292 33.5772C2.88169 35.1029 3.90274 37.4497 6.57214 40.6178L6.55037 40.5921C7.57935 41.7556 8.77849 42.8004 10.1498 43.7265L10.2428 43.7957C10.9453 44.3577 13.0943 45.5193 16.6957 47.2804L16.7867 47.3299C16.9569 47.4288 17.1112 47.5357 17.2458 47.6484C17.6594 47.9928 17.9146 48.4004 18.0135 48.8674L17.974 48.719C18.0274 48.8852 18.063 49.0633 18.0808 49.2532C18.2589 51.24 15.6232 57.4098 10.1716 67.7609C9.80551 68.4555 8.94471 68.7226 8.25015 68.3565C7.5556 67.9905 7.28846 67.1317 7.65453 66.4351C12.8449 56.5807 15.3758 50.9372 15.2472 49.5085C15.2492 49.5323 15.2571 49.5619 15.2689 49.5995C15.2531 49.5501 15.2413 49.5006 15.2294 49.4511C15.267 49.6272 15.3303 49.7539 15.4233 49.8311C15.4094 49.8212 15.3877 49.8053 15.354 49.7856L15.4451 49.835C11.6557 47.9829 9.33057 46.7085 8.46584 46.0159L8.55886 46.0852C6.98769 45.0226 5.60846 43.8215 4.42119 42.4779L4.39942 42.4521C0.985995 38.4055 -0.187436 35.0851 0.883093 32.4929C0.908818 32.4295 0.938492 32.3702 0.97411 32.3128C1.25312 31.8418 1.5559 31.4342 1.88438 31.0919C4.03137 28.8499 6.71066 29.2674 9.92027 32.3425L9.90641 32.3286C11.5033 33.8147 12.9874 35.5798 14.3587 37.6258L14.335 37.5922C15.6449 39.4266 17.2161 42.4205 19.0465 46.5739L18.9654 46.4157C19.1276 46.6887 19.2543 46.8589 19.3473 46.9282C19.2622 46.8629 19.1375 46.8312 18.9753 46.8312L18.2767 47.0212C25.3213 42.9765 29.3184 40.2854 30.2702 38.9457C30.2979 38.9042 30.3296 38.8646 30.3632 38.829C32.4509 36.4603 33.1118 34.6755 32.346 33.4763L32.8189 33.9354C31.3507 33.0627 28.6219 34.2955 24.6326 37.6298L24.6702 37.5962C21.7178 40.2477 19.8439 43.584 19.0465 47.6069C18.8941 48.3766 18.1461 48.8773 17.3744 48.7249C16.6046 48.5725 16.104 47.8246 16.2564 47.0548V47.0508Z" fill="#6D5656"/>
<path d="M19.9131 48.5864C20.58 51.5704 21.5258 54.3605 22.7507 56.9586L22.723 56.9032C25.0125 61.2625 27.1258 64.7907 29.065 67.4858C29.5241 68.123 29.3797 69.0135 28.7405 69.4706C28.1033 69.9296 27.2149 69.7832 26.7558 69.146C24.7394 66.3421 22.5548 62.7011 20.206 58.227L20.1783 58.1716C18.8643 55.3835 17.8492 52.3936 17.1368 49.2077C16.9647 48.4399 17.4475 47.6801 18.2133 47.5099C18.9811 47.3397 19.7409 47.8206 19.9111 48.5883L19.9131 48.5864Z" fill="#6D5656"/>
<path d="M307.027 43.2415C305.659 39.3749 303.328 36.3415 300.034 34.1391L300.075 34.1668C295.662 31.442 292.795 30.6128 291.475 31.6834L291.877 31.161C291.293 32.4591 292.204 34.1311 294.606 36.1772C294.643 36.2089 294.681 36.2445 294.715 36.2801C295.845 37.4694 300.178 39.561 307.709 42.5509L307.185 42.45L306.987 42.4639C306.825 42.4856 306.706 42.5371 306.631 42.6142C306.71 42.5331 306.811 42.3471 306.934 42.0542L306.876 42.2224C308.083 37.8513 309.199 34.6634 310.228 32.6589L310.211 32.6945C311.269 30.4763 312.48 28.5153 313.84 26.8155L313.828 26.8314C316.549 23.3329 319.129 22.5334 321.571 24.4311C321.949 24.724 322.311 25.0881 322.657 25.5194C322.699 25.5709 322.736 25.6263 322.772 25.6856C324.203 28.0958 323.524 31.5468 320.742 36.0407L320.724 36.0684C319.746 37.5683 318.559 38.9554 317.162 40.2318L317.243 40.1506C316.489 40.96 314.378 42.5549 310.907 44.9314L310.99 44.8701C310.961 44.8938 310.941 44.9116 310.929 44.9235C311.008 44.8344 311.054 44.6999 311.065 44.5198C311.061 44.5713 311.056 44.6227 311.048 44.6722C311.056 44.6326 311.058 44.6009 311.056 44.5792C311.135 46.0098 314.445 51.2319 320.989 60.2433C321.45 60.8785 321.31 61.767 320.674 62.23C320.039 62.6911 319.151 62.5506 318.688 61.9154C311.815 52.4528 308.323 46.7242 308.216 44.7355C308.206 44.5455 308.216 44.3655 308.244 44.1953L308.226 44.3476C308.256 43.8708 308.449 43.4295 308.808 43.0278C308.924 42.8972 309.059 42.7706 309.213 42.6499L309.296 42.5885C312.593 40.3307 314.546 38.8743 315.158 38.2173L315.239 38.1362C316.458 37.0222 317.491 35.8171 318.337 34.519L318.32 34.5467C320.498 31.0304 321.165 28.5628 320.322 27.142L320.437 27.3063C320.229 27.047 320.025 26.8393 319.822 26.683C318.876 25.9488 317.625 26.582 316.07 28.5846L316.058 28.6004C314.835 30.13 313.741 31.905 312.775 33.9273L312.757 33.9629C311.817 35.7933 310.771 38.8011 309.615 42.9843C309.599 43.0417 309.579 43.0971 309.558 43.1525C309.296 43.7798 309 44.2645 308.665 44.6049C308.287 44.9908 307.86 45.2164 307.381 45.2836L307.185 45.2975C307.138 45.3173 306.888 45.2876 306.661 45.1966C298.741 42.0523 294.072 39.7331 292.653 38.2411L292.762 38.344C289.277 35.3758 288.117 32.5936 289.281 29.9994C289.372 29.7956 289.51 29.6175 289.683 29.477C292.047 27.5596 296.011 28.3155 301.567 31.7487L301.611 31.7764C305.43 34.329 308.127 37.8335 309.704 42.2937C309.965 43.0337 309.577 43.847 308.837 44.1082C308.097 44.3694 307.284 43.9816 307.023 43.2415H307.027Z" fill="#6D5656"/>
<path d="M309.15 44.5515C308.907 47.8086 308.339 50.9094 307.444 53.8578L307.427 53.9152V53.9191C305.755 58.6841 304.126 62.5981 302.541 65.6613C302.181 66.3578 301.322 66.6329 300.625 66.2708C299.929 65.9106 299.656 65.0518 300.016 64.3533C301.54 61.4089 303.115 57.6175 304.743 52.9772V52.9753L304.724 53.0326C305.557 50.2861 306.087 47.3891 306.314 44.3398C306.372 43.5562 307.055 42.9685 307.838 43.0278C308.622 43.0872 309.209 43.7679 309.15 44.5515Z" fill="#6D5656"/>
<path d="M150.193 81.0326L151.064 119.72V119.748C151.068 120.836 151.111 121.511 151.199 121.772C151.151 121.628 151.042 121.489 150.87 121.357C151.001 121.457 151.111 121.58 151.199 121.719C151.167 121.669 151.125 121.64 151.07 121.626C151.369 121.697 151.984 121.477 152.916 120.971C152.978 120.937 153.043 120.907 153.108 120.884C154.074 120.531 157.408 118.254 163.111 114.053L163.154 114.023C163.766 113.608 164.31 113.344 164.787 113.236C165.123 113.158 165.444 113.15 165.749 113.21L165.533 113.184C165.582 113.186 165.632 113.19 165.679 113.194C166.342 113.257 167.169 113.596 168.155 114.207L168.278 114.292H168.282L168.228 114.255C175.797 119.589 180.081 122.403 181.084 122.696C181.025 122.678 180.946 122.67 180.851 122.672C180.952 122.67 181.053 122.678 181.15 122.698C180.756 122.621 180.471 122.712 180.293 122.967C180.412 122.797 180.534 122.385 180.661 121.731C180.843 120.797 180.983 119.506 181.08 117.864L181.094 117.739C181.539 114.741 181.862 102.768 182.058 81.8163C182.066 81.0307 182.707 80.3995 183.493 80.4074C184.278 80.4153 184.909 81.0584 184.901 81.842C184.704 102.924 184.373 115.03 183.906 118.157L183.92 118.032C183.815 119.801 183.659 121.214 183.451 122.273C183.247 123.318 182.972 124.089 182.628 124.588C182.099 125.348 181.427 125.647 180.605 125.488L180.904 125.514C180.71 125.518 180.505 125.488 180.285 125.425C178.979 125.043 174.412 122.095 166.586 116.578L166.532 116.538H166.528L166.651 116.621C166.043 116.243 165.628 116.045 165.408 116.024H165.414C165.343 116.02 165.27 116.012 165.199 115.998C165.29 116.016 165.363 116.018 165.418 116.006C165.29 116.036 165.068 116.158 164.753 116.372L164.797 116.342C158.874 120.705 155.303 123.11 154.082 123.555L154.274 123.468C152.708 124.319 151.424 124.628 150.421 124.394C149.72 124.23 149.178 123.846 148.794 123.238L149.123 123.601C148.838 123.379 148.628 123.066 148.496 122.661C148.313 122.112 148.222 121.143 148.218 119.752V119.781L147.348 81.094C147.33 80.3084 147.953 79.6574 148.737 79.6396C149.523 79.6218 150.174 80.2431 150.191 81.0287L150.193 81.0326Z" fill="#6D5656"/>
<path d="M256.25 32.431C256.555 29.7484 256.09 28.003 254.85 27.1953C252.556 26.0008 250.882 26.2151 249.828 27.8383C249.063 28.9659 249.145 30.9472 250.076 33.7764C251.023 36.5697 252.532 39.3338 254.6 42.0655C254.952 42.4998 257.26 40.6676 261.518 36.5755C263.31 34.6801 264.407 32.9486 264.811 31.3812C264.857 29.8718 263.88 29.1681 261.879 29.272C260.048 29.5424 258.212 30.5235 256.374 32.2168L256.25 32.431Z" fill="#B91220"/>
<path d="M204.583 79.2953C205.718 90.333 206.953 98.6459 208.728 104.778C211.4 114.013 213.655 119.267 215.24 121.044L213.004 121.188C218.968 112.458 222.9 107.295 224.555 106.357C224.729 106.26 224.986 106.134 225.305 106.09C226.086 105.979 227.117 106.098 228.316 106.757L228.295 106.745H228.298L228.32 106.759C235.133 110.501 238.719 112.258 239.289 112.44L239.307 112.446C239.334 112.454 239.334 112.456 239.326 112.454L239.312 112.45H239.316L239.291 112.442C240.379 112.782 241.236 113.083 241.81 113.285C242.142 113.402 242.356 113.477 242.504 113.524C242.566 113.542 242.587 113.548 242.595 113.55C242.595 113.55 242.564 113.542 242.496 113.534C242.334 113.518 242.091 113.631 242.012 113.76C242.012 113.76 242.012 113.76 242.012 113.756C241.96 113.849 241.95 113.908 241.95 113.902C241.984 113.738 241.966 113.162 241.733 111.916L241.737 111.939L239.73 102.188L239.718 102.123C238.113 91.918 236.326 82.0161 234.358 72.4031C234.201 71.6333 234.696 70.8834 235.466 70.7251C236.235 70.5668 236.985 71.0635 237.144 71.8332C239.121 81.4897 240.913 91.4371 242.526 101.681L242.514 101.616L244.521 111.368L244.525 111.389C244.742 112.545 244.899 113.673 244.734 114.474C244.695 114.672 244.626 114.904 244.499 115.133C244.477 115.171 244.453 115.21 244.436 115.242C243.895 116.127 243.041 116.445 242.221 116.366C242.105 116.356 241.996 116.332 241.928 116.317C241.832 116.293 241.744 116.267 241.657 116.239C241.454 116.176 241.171 116.075 240.87 115.968C240.3 115.768 239.487 115.481 238.446 115.157L238.42 115.149H238.416L238.402 115.143C238.349 115.125 238.428 115.151 238.41 115.145L238.428 115.151C237.526 114.864 233.627 112.917 226.955 109.254L226.977 109.266H226.973L226.951 109.252C226.252 108.868 225.839 108.89 225.704 108.908C225.884 108.882 225.981 108.821 225.962 108.833C225.045 109.351 221.582 113.679 215.357 122.793C215.11 123.155 214.71 123.383 214.275 123.411C213.837 123.438 213.412 123.264 213.121 122.938C211.03 120.591 208.631 114.664 206.001 105.57C204.149 99.1722 202.895 90.6397 201.759 79.5861C201.678 78.8045 202.248 78.106 203.027 78.0268C203.809 77.9457 204.507 78.5156 204.587 79.2953H204.583Z" fill="#6D5656"/>
<path d="M257.193 64.6641C257.707 82.0122 262.909 95.6362 272.799 105.534L271.422 105.166C271.197 105.225 271.034 105.32 270.933 105.449C271.09 105.249 271.323 104.703 271.636 103.813L271.616 103.874L271.606 103.904C272.422 100.943 273.819 96.408 275.801 90.2974L275.817 90.2519C276.057 89.589 276.332 89.0785 276.64 88.7204C276.951 88.3602 277.307 88.1247 277.711 88.0119L277.008 88.4611C277.357 88.0515 277.839 87.8338 278.459 87.8042C278.997 87.7784 279.725 87.915 280.643 88.2158L280.77 88.2632H280.774L280.75 88.2533C287.714 91.1265 291.788 92.6522 292.973 92.8362C293.029 92.8441 293.084 92.858 293.14 92.8719C294.356 93.2142 295.843 93.5229 297.596 93.8019L297.572 93.7979C297.627 93.8058 297.667 93.8098 297.691 93.8078C297.412 93.8217 297.2 93.9938 297.052 94.3263L297.069 95.5215L289.665 80.1898L289.633 80.1225C288.347 77.0593 287.304 74.1188 286.503 71.303L286.509 71.3248C284.892 65.982 284.532 60.0793 285.428 53.6205C285.537 52.8428 286.255 52.2987 287.033 52.4075C287.811 52.5163 288.355 53.2346 288.246 54.0123C287.407 60.0595 287.735 65.5566 289.231 70.5036L289.239 70.5253C290.009 73.2303 291.014 76.062 292.257 79.0203L292.225 78.953L299.632 94.2847C299.814 94.6607 299.82 95.098 299.65 95.4799C299.325 96.214 298.718 96.6019 297.831 96.6454C297.625 96.6553 297.406 96.6454 297.17 96.6098L297.147 96.6058C295.285 96.309 293.692 95.9766 292.368 95.6046L292.534 95.6402C291.125 95.4225 286.835 93.8335 279.662 90.8752L279.636 90.8654H279.632L279.759 90.9109C279.171 90.7189 278.781 90.6279 278.589 90.6358C278.793 90.6259 278.985 90.5131 279.171 90.2955C278.987 90.5112 278.742 90.6675 278.469 90.7447C278.617 90.7031 278.726 90.6457 278.791 90.5685C278.71 90.6635 278.609 90.8772 278.488 91.2116L278.504 91.1661C276.535 97.2351 275.15 101.731 274.347 104.65L274.317 104.745C273.902 105.934 273.518 106.753 273.166 107.2C272.877 107.568 272.54 107.802 272.158 107.907C271.666 108.039 271.141 107.899 270.781 107.539C260.359 97.1084 254.879 82.8433 254.343 64.7433C254.319 63.9597 254.937 63.3027 255.722 63.281C256.508 63.2572 257.163 63.8746 257.187 64.6602L257.193 64.6641Z" fill="#6D5656"/>
<path d="M168.813 13.6032C166.668 13.1322 164.6 11.6442 162.607 9.14297C160.819 6.73676 160.17 4.58184 160.656 2.67824C161.315 1.40984 162.338 0.932946 163.725 1.24362C164.503 1.52658 165.548 2.77125 166.862 4.9776C166.909 4.96771 166.957 4.88065 167.01 4.71839C167.204 3.57861 167.396 2.81676 167.59 2.43287C167.839 1.87288 168.174 1.4237 168.597 1.08731C169.834 0.232469 170.885 0.210689 171.752 1.02397C172.618 1.9916 172.937 3.41238 172.705 5.28432C172.575 5.90764 172.359 6.53493 172.06 7.1721C170.592 9.82962 169.741 11.4582 169.508 12.0597L168.815 13.5992L168.813 13.6032Z" fill="#B91220"/>
<path d="M132.455 81.6065C131.545 92.6798 130.463 101.236 128.743 107.671C126.297 116.815 124.02 122.789 121.978 125.18C121.695 125.512 121.271 125.696 120.834 125.676C120.397 125.656 119.993 125.437 119.738 125.081C113.328 116.095 109.776 111.839 108.85 111.338C108.831 111.328 108.926 111.387 109.108 111.409L109.276 111.419L109.106 111.409C108.973 111.393 108.557 111.379 107.867 111.777H107.871L107.863 111.781H107.861C101.264 115.582 97.4109 117.605 96.5125 117.911L96.5323 117.906H96.5263L96.5006 117.915C95.4558 118.266 94.6643 118.562 94.0904 118.778C93.7738 118.897 93.5225 118.992 93.3049 119.065C93.2178 119.095 93.1347 119.12 93.0357 119.148C92.9685 119.166 92.8596 119.192 92.7389 119.206H92.7429C91.9256 119.301 91.0629 119 90.5049 118.123C90.4831 118.093 90.4593 118.05 90.4396 118.018C90.309 117.789 90.2338 117.559 90.1902 117.365C90.0102 116.568 90.1428 115.436 90.3367 114.276L90.3406 114.253L92.1473 104.464L92.1354 104.529C93.5384 94.251 95.1293 84.2739 96.9102 74.5778C97.0507 73.8061 97.7928 73.2955 98.5645 73.436C99.3362 73.5785 99.8487 74.3186 99.7063 75.0923C97.9352 84.7429 96.3502 94.6764 94.9532 104.915L94.9433 104.98L93.1367 114.769L93.1406 114.745C92.9309 115.998 92.9249 116.574 92.9625 116.736C92.9625 116.736 92.9507 116.683 92.8992 116.592C92.8181 116.465 92.5707 116.36 92.4105 116.378H92.4144C92.3392 116.386 92.3036 116.398 92.3095 116.396C92.3194 116.394 92.3352 116.39 92.4005 116.368C92.5628 116.315 92.7468 116.245 93.0911 116.117C93.667 115.901 94.506 115.586 95.5943 115.222L95.5686 115.23H95.5745L95.5943 115.222C96.1583 115.03 99.7043 113.2 106.44 109.321H106.436L106.444 109.318H106.446C107.629 108.635 108.658 108.494 109.444 108.589C109.763 108.627 110.026 108.748 110.2 108.841C111.872 109.745 115.909 114.828 122.049 123.434L119.809 123.335C121.358 121.525 123.507 116.225 125.991 106.939C127.641 100.771 128.708 92.4344 129.616 81.3769C129.679 80.5933 130.368 80.0116 131.149 80.0749C131.933 80.1382 132.515 80.8249 132.449 81.6085L132.455 81.6065Z" fill="#6D5656"/>
<path d="M83.541 45.7115C85.2942 44.388 86.556 42.1754 87.3239 39.0727C87.9477 36.1403 87.6401 33.9097 86.4061 32.383C85.2769 31.5053 84.1492 31.4963 83.0193 32.3575C82.4321 32.938 81.9994 34.5061 81.7241 37.0586C81.6784 37.0677 81.5956 37.0109 81.4828 36.8851C80.8336 35.9308 80.3396 35.319 80.0042 35.0482C79.5441 34.6438 79.0518 34.3742 78.528 34.2456C77.0463 33.9824 76.0823 34.4006 75.6325 35.5017C75.2477 36.7428 75.5505 38.1667 76.5408 39.7732C76.9199 40.2839 77.3775 40.767 77.9147 41.2198C80.3558 43.0231 81.8083 44.1488 82.2712 44.5994L83.5429 45.7107L83.541 45.7115Z" fill="#B91220"/>
<path d="M79.5699 67.8439C79.4017 85.849 74.2588 100.278 64.0047 110.966C63.6524 111.334 63.13 111.484 62.6373 111.362C62.1327 111.235 61.8003 110.902 61.64 110.718C61.1631 110.178 60.7456 109.278 60.3953 108.186C60.2232 107.651 60.0411 107.079 59.8373 106.442C59.5603 105.572 59.3644 104.958 59.0379 103.939C58.2325 101.438 57.2253 98.3747 55.9569 94.7634C55.8144 94.3578 55.6977 94.2035 55.6759 94.1817C55.666 94.1718 55.759 94.2806 55.9787 94.338C55.7036 94.2668 55.4563 94.1164 55.2683 93.9027C55.5473 94.2193 55.8461 94.2133 55.7887 94.2094C55.7313 94.2054 55.4108 94.2272 54.7795 94.4963L54.7657 94.5023C47.8023 97.4546 43.5261 99.1603 42.1014 99.5007C41.7808 99.5779 41.3969 99.6748 41.0269 99.7678C40.5975 99.8766 40.1582 99.9894 39.6714 100.106C38.9828 100.27 38.2308 100.435 37.4215 100.577C37.2157 100.613 37.004 100.635 36.7863 100.633C36.163 100.625 35.3141 100.379 34.9025 99.4987C34.7264 99.1208 34.7244 98.6834 34.8985 98.3035L41.9905 82.8234L41.9609 82.8926C43.1422 79.9106 44.0604 77.0513 44.8083 74.3225C46.1836 69.3122 46.6249 65.1013 45.6652 59.0897C45.5405 58.314 46.0689 57.5839 46.8465 57.4612C47.6222 57.3365 48.3504 57.8668 48.4751 58.6406C49.506 65.0974 49.0212 69.7178 47.5529 75.0744C46.7832 77.8863 45.8314 80.8466 44.6065 83.9394L44.5768 84.0087L37.4848 99.4888L37.4789 98.2936C37.2573 97.8207 36.82 97.789 36.8259 97.789C36.8259 97.789 36.8615 97.789 36.9308 97.7771C37.6708 97.6465 38.3555 97.4962 39.0125 97.3398C39.4894 97.2251 39.8851 97.1261 40.3284 97.0113C40.7023 96.9164 41.0902 96.8174 41.4444 96.7343C42.5743 96.4652 46.5556 94.8941 53.6575 91.8823L53.6714 91.8764C54.4787 91.534 55.2703 91.3302 55.9549 91.3698C56.3368 91.3916 56.9463 91.5083 57.3955 92.0149L56.6851 91.5815C57.164 91.7062 57.5221 91.9892 57.7734 92.2603C58.1573 92.6798 58.4344 93.2358 58.6382 93.8195C59.9165 97.4586 60.9355 100.555 61.7449 103.068C62.0555 104.036 62.2891 104.766 62.5483 105.58C62.7699 106.276 62.9124 106.727 63.1024 107.315C63.4269 108.322 63.6999 108.755 63.7731 108.841C63.8167 108.89 63.6703 108.69 63.324 108.603L61.9546 108.999C71.5953 98.9486 76.5641 85.2791 76.7283 67.8202C76.7363 67.0346 77.3774 66.4034 78.163 66.4113C78.9486 66.4192 79.5798 67.0603 79.5719 67.8459L79.5699 67.8439Z" fill="#6D5656"/>
</svg>
